<svg xmlns="http://www.w3.org/2000/svg" version="1.1" xmlns:xlink="http://www.w3.org/1999/xlink" xmlns:svgjs="http://svgjs.dev/svgjs" width="1000" height="295" viewBox="0 0 1000 295"><g transform="matrix(1,0,0,1,-0.6060606060606233,0.3262791690741551)"><svg viewBox="0 0 396 117" data-background-color="#ffffff" preserveAspectRatio="xMidYMid meet" height="295" width="1000" xmlns="http://www.w3.org/2000/svg" xmlns:xlink="http://www.w3.org/1999/xlink"><defs></defs><g id="tight-bounds" transform="matrix(1,0,0,1,0.2400000000000091,-0.12940563654805715)"><svg viewBox="0 0 395.52 117.25881127309609" height="117.25881127309609" width="395.52"><g><svg viewBox="0 0 657.6083045159919 194.95946619857756" height="117.25881127309609" width="395.52"><g transform="matrix(1,0,0,1,260.11070451599204,45.91728884867861)"><svg viewBox="0 0 397.4975999999999 103.12488850122034" height="103.12488850122034" width="397.4975999999999"><g><svg viewBox="0 0 397.4975999999999 103.12488850122034" height="103.12488850122034" width="397.4975999999999"><g><rect width="397.4975999999999" height="5.522645707508958" x="0" y="67.7452832445919" fill="#096a2e" opacity="1" stroke-width="0" stroke="transparent" fill-opacity="1" class="rect-si-0" data-fill-palette-color="primary" rx="1%" id="si-0" data-palette-color="#096a2e"></rect></g><g transform="matrix(1,0,0,1,0.9887999999999693,0)"><svg viewBox="0 0 395.52 61.23954877239548" height="61.23954877239548" width="395.52"><g transform="matrix(1,0,0,1,0,0)"><svg width="395.52" viewBox="3.9 -35 226.04 35" height="61.23954877239548" data-palette-color="#096a2e"><path d="M9.65 0L5.1 0Q4.6 0 4.25-0.33 3.9-0.65 3.9-1.2L3.9-1.2 3.9-33.75Q3.9-34.3 4.25-34.65 4.6-35 5.1-35L5.1-35 9.65-35Q10.2-35 10.53-34.65 10.85-34.3 10.85-33.75L10.85-33.75 10.85-20.85 25.6-20.85 25.6-33.75Q25.6-34.3 25.95-34.65 26.3-35 26.8-35L26.8-35 31.3-35Q31.85-35 32.2-34.65 32.55-34.3 32.55-33.75L32.55-33.75 32.55-1.2Q32.55-0.7 32.2-0.35 31.85 0 31.3 0L31.3 0 26.8 0Q26.3 0 25.95-0.35 25.6-0.7 25.6-1.2L25.6-1.2 25.6-14.6 10.85-14.6 10.85-1.2Q10.85-0.7 10.53-0.35 10.2 0 9.65 0L9.65 0ZM63.95 0L41.55 0Q41.05 0 40.7-0.35 40.35-0.7 40.35-1.2L40.35-1.2 40.35-33.75Q40.35-34.3 40.7-34.65 41.05-35 41.55-35L41.55-35 63.55-35Q64.1-35 64.45-34.65 64.8-34.3 64.8-33.75L64.8-33.75 64.8-30.45Q64.8-29.95 64.45-29.6 64.1-29.25 63.55-29.25L63.55-29.25 47.1-29.25 47.1-20.4 62.45-20.4Q63-20.4 63.35-20.08 63.7-19.75 63.7-19.2L63.7-19.2 63.7-16.1Q63.7-15.55 63.35-15.23 63-14.9 62.45-14.9L62.45-14.9 47.1-14.9 47.1-5.75 63.95-5.75Q64.5-5.75 64.85-5.4 65.2-5.05 65.2-4.5L65.2-4.5 65.2-1.2Q65.2-0.7 64.85-0.35 64.5 0 63.95 0L63.95 0ZM73.65 0L69.3 0Q68.9 0 68.57-0.3 68.25-0.6 68.25-1.05L68.25-1.05Q68.25-1.25 68.35-1.5L68.35-1.5 80.4-33.75Q80.55-34.25 80.97-34.63 81.4-35 82.15-35L82.15-35 87.6-35Q88.35-35 88.75-34.63 89.15-34.25 89.35-33.75L89.35-33.75 101.4-1.5Q101.45-1.25 101.45-1.05L101.45-1.05Q101.45-0.6 101.15-0.3 100.85 0 100.45 0L100.45 0 96.1 0Q95.4 0 95.07-0.33 94.75-0.65 94.65-0.95L94.65-0.95 92.3-7.05 77.45-7.05 75.1-0.95Q75-0.65 74.67-0.33 74.35 0 73.65 0L73.65 0ZM84.85-28.25L79.2-12.8 90.55-12.8 84.85-28.25ZM128.99 0L107.29 0Q106.79 0 106.44-0.35 106.09-0.7 106.09-1.2L106.09-1.2 106.09-33.8Q106.09-34.3 106.44-34.65 106.79-35 107.29-35L107.29-35 111.94-35Q112.44-35 112.79-34.65 113.14-34.3 113.14-33.8L113.14-33.8 113.14-5.95 128.99-5.95Q129.54-5.95 129.89-5.6 130.24-5.25 130.24-4.7L130.24-4.7 130.24-1.2Q130.24-0.7 129.89-0.35 129.54 0 128.99 0L128.99 0ZM148.59 0L143.99 0Q143.49 0 143.14-0.35 142.79-0.7 142.79-1.2L142.79-1.2 142.79-28.85 133.54-28.85Q133.04-28.85 132.69-29.2 132.34-29.55 132.34-30.05L132.34-30.05 132.34-33.75Q132.34-34.3 132.69-34.65 133.04-35 133.54-35L133.54-35 159.04-35Q159.59-35 159.94-34.65 160.29-34.3 160.29-33.75L160.29-33.75 160.29-30.05Q160.29-29.55 159.94-29.2 159.59-28.85 159.04-28.85L159.04-28.85 149.84-28.85 149.84-1.2Q149.84-0.7 149.49-0.35 149.14 0 148.59 0L148.59 0ZM171.09 0L166.54 0Q166.04 0 165.69-0.33 165.34-0.65 165.34-1.2L165.34-1.2 165.34-33.75Q165.34-34.3 165.69-34.65 166.04-35 166.54-35L166.54-35 171.09-35Q171.64-35 171.96-34.65 172.29-34.3 172.29-33.75L172.29-33.75 172.29-20.85 187.04-20.85 187.04-33.75Q187.04-34.3 187.39-34.65 187.74-35 188.24-35L188.24-35 192.74-35Q193.29-35 193.64-34.65 193.99-34.3 193.99-33.75L193.99-33.75 193.99-1.2Q193.99-0.7 193.64-0.35 193.29 0 192.74 0L192.74 0 188.24 0Q187.74 0 187.39-0.35 187.04-0.7 187.04-1.2L187.04-1.2 187.04-14.6 172.29-14.6 172.29-1.2Q172.29-0.7 171.96-0.35 171.64 0 171.09 0L171.09 0ZM216.74 0L212.19 0Q211.69 0 211.34-0.35 210.99-0.7 210.99-1.2L210.99-1.2 210.99-12.5 199.19-33.4Q199.14-33.5 199.09-33.65 199.04-33.8 199.04-33.95L199.04-33.95Q199.04-34.4 199.34-34.7 199.64-35 200.04-35L200.04-35 204.49-35Q205.09-35 205.46-34.7 205.84-34.4 205.99-34.05L205.99-34.05 214.49-19.5 222.94-34.05Q223.14-34.4 223.51-34.7 223.89-35 224.49-35L224.49-35 228.89-35Q229.34-35 229.64-34.7 229.94-34.4 229.94-33.95L229.94-33.95Q229.94-33.8 229.91-33.65 229.89-33.5 229.79-33.4L229.79-33.4 217.99-12.5 217.99-1.2Q217.99-0.7 217.64-0.35 217.29 0 216.74 0L216.74 0Z" opacity="1" transform="matrix(1,0,0,1,0,0)" fill="#096a2e" class="undefined-text-0" data-fill-palette-color="primary" id="text-0"></path></svg></g></svg></g><g transform="matrix(1,0,0,1,0,79.77366342429728)"><svg viewBox="0 0 232.209792 23.351225076923075" height="23.351225076923075" width="232.209792"><g transform="matrix(1,0,0,1,0,0)"><svg width="232.209792" viewBox="2.25 -37.7 499.14 50.2" height="23.351225076923075" data-palette-color="#3c3c3c"><path d="M15.3 0L12.15 0 12.15-32 2.25-32 2.5-35 25.15-35 24.9-32 15.3-32 15.3 0ZM26.35-19.9L25.45-22.3Q30.9-25 35-25.15L35-25.15Q38.25-25.15 40.02-24.33 41.8-23.5 42.9-22.03 44-20.55 44-17.9L44-17.9 44 0 40.75 0 40.75-1.9Q33.9 0.2 31.95 0.2L31.95 0.2Q31.85 0.2 31.8 0.2L31.8 0.2Q27.3 0.2 25.65-2.55L25.65-2.55Q25.05-3.55 24.97-4.5 24.9-5.45 24.9-6.1L24.9-6.1Q24.9-7.9 26.3-9.33 27.7-10.75 29.65-11.25L29.65-11.25Q32.95-12.1 40.75-12.75L40.75-12.75 40.75-16.8Q40.75-22.25 35.05-22.25L35.05-22.25Q31.05-22.25 26.35-19.9L26.35-19.9ZM27.95-5.7L27.95-5.7Q27.95-2.1 32.9-2.1L32.9-2.1Q36.85-2.1 40.75-3.8L40.75-3.8 40.75-10.95Q32.95-9.85 31.1-9.25L31.1-9.25Q27.95-8.25 27.95-5.7ZM52.75-37.5L52.75 0 49.5 0 49.5-37.25 52.75-37.5ZM52.75-13.3L62.8-25 66.7-25 56-13.3 67.7 0 64.05 0.25 52.75-13.3ZM71.84-12.3L71.84-11.5Q71.84-2.7 80.24-2.7L80.24-2.7Q83.79-2.7 86.74-3.65L86.74-3.65Q87.49-3.9 87.79-4.05L87.79-4.05 88.54-1.4Q86.79-0.35 82.19 0.1L82.19 0.1Q80.89 0.2 79.44 0.2L79.44 0.2Q75.24 0.2 72.44-1.9L72.44-1.9Q68.59-4.75 68.59-11.4 68.59-18.05 72.07-21.63 75.54-25.2 80.49-25.2 85.44-25.2 87.94-22L87.94-22Q89.84-19.45 89.84-15.25L89.84-15.25Q89.84-14.25 89.74-13.15L89.74-13.15 71.89-13.15Q71.84-12.75 71.84-12.3L71.84-12.3ZM80.69-22.1L80.69-22.1Q77.59-22.1 75.39-20.23 73.19-18.35 72.34-15.4L72.34-15.4 86.89-15.4Q86.64-20.95 82.59-21.85L82.59-21.85Q81.69-22.1 80.69-22.1ZM126.39-16.4L126.14-21.65Q124.09-22.3 121.94-22.3L121.94-22.3Q117.59-22.3 114.96-19.5 112.34-16.7 112.34-11.6L112.34-11.6Q112.34-2.7 120.59-2.7L120.59-2.7Q123.89-2.7 127.39-3.8L127.39-3.8Q128.09-4 128.24-4.1L128.24-4.1 129.04-1.4Q127.29-0.35 122.69 0.1L122.69 0.1Q121.39 0.2 119.94 0.2L119.94 0.2Q115.69 0.2 112.94-1.9L112.94-1.9Q109.09-4.8 109.09-11.45 109.09-18.1 112.66-21.68 116.24-25.25 121.89-25.25L121.89-25.25Q123.69-25.25 125.71-24.78 127.74-24.3 128.84-23.3L128.84-23.3 128.84-16.75 126.39-16.4ZM134.24-19.9L133.34-22.3Q138.79-25 142.89-25.15L142.89-25.15Q146.14-25.15 147.91-24.33 149.69-23.5 150.79-22.03 151.89-20.55 151.89-17.9L151.89-17.9 151.89 0 148.64 0 148.64-1.9Q141.79 0.2 139.84 0.2L139.84 0.2Q139.74 0.2 139.69 0.2L139.69 0.2Q135.19 0.2 133.54-2.55L133.54-2.55Q132.94-3.55 132.86-4.5 132.79-5.45 132.79-6.1L132.79-6.1Q132.79-7.9 134.19-9.33 135.59-10.75 137.54-11.25L137.54-11.25Q140.84-12.1 148.64-12.75L148.64-12.75 148.64-16.8Q148.64-22.25 142.94-22.25L142.94-22.25Q138.94-22.25 134.24-19.9L134.24-19.9ZM135.84-5.7L135.84-5.7Q135.84-2.1 140.79-2.1L140.79-2.1Q144.74-2.1 148.64-3.8L148.64-3.8 148.64-10.95Q140.84-9.85 138.99-9.25L138.99-9.25Q135.84-8.25 135.84-5.7ZM171.23-24.5L169.93-21.5Q169.13-21.95 168.23-21.95 167.33-21.95 167.23-21.9L167.23-21.9Q165.33-21.9 163.41-20.53 161.48-19.15 160.13-17.45L160.13-17.45 160.13 0 156.88 0 156.88-25 160.13-25.25 160.13-19.65Q161.98-22 163.28-22.95L163.28-22.95Q165.68-24.75 167.88-24.85L167.88-24.85Q168.18-24.9 168.98-24.9 169.78-24.9 171.23-24.5L171.23-24.5ZM174.53-12.3L174.53-11.5Q174.53-2.7 182.93-2.7L182.93-2.7Q186.48-2.7 189.43-3.65L189.43-3.65Q190.18-3.9 190.48-4.05L190.48-4.05 191.23-1.4Q189.48-0.35 184.88 0.1L184.88 0.1Q183.58 0.2 182.13 0.2L182.13 0.2Q177.93 0.2 175.13-1.9L175.13-1.9Q171.28-4.75 171.28-11.4 171.28-18.05 174.76-21.63 178.23-25.2 183.18-25.2 188.13-25.2 190.63-22L190.63-22Q192.53-19.45 192.53-15.25L192.53-15.25Q192.53-14.25 192.43-13.15L192.43-13.15 174.58-13.15Q174.53-12.75 174.53-12.3L174.53-12.3ZM183.38-22.1L183.38-22.1Q180.28-22.1 178.08-20.23 175.88-18.35 175.03-15.4L175.03-15.4 189.58-15.4Q189.33-20.95 185.28-21.85L185.28-21.85Q184.38-22.1 183.38-22.1ZM212.68-6.4L212.68-6.4Q211.78-8.8 211.78-12L211.78-12Q211.78-18.15 215.23-21.68 218.68-25.2 223.88-25.2L223.88-25.2Q232.03-25.2 234.58-18.6L234.58-18.6Q235.53-16.2 235.53-13L235.53-13Q235.53-6.85 232.08-3.33 228.63 0.2 223.43 0.2L223.43 0.2Q215.28 0.2 212.68-6.4ZM215.03-12.35Q215.03-7.75 217.4-5.23 219.78-2.7 223.53-2.7 227.28-2.7 229.78-5.38 232.28-8.05 232.28-12.65 232.28-17.25 229.93-19.78 227.58-22.3 223.8-22.3 220.03-22.3 217.53-19.63 215.03-16.95 215.03-12.35ZM241.37-25L241.37-30.9Q241.37-37.7 248.87-37.7L248.87-37.7Q250.82-37.7 252.32-37.3L252.32-37.3 251.82-34.5Q250.12-34.75 248.95-34.75 247.77-34.75 246.82-34.35L246.82-34.35Q244.62-33.35 244.62-29.75L244.62-29.75 244.62-25 250.82-25 250.82-22.1 244.62-22.1 244.62 0 241.37 0 241.37-22.1 238.57-22.1 239.02-25 241.37-25ZM277.87 0L268.97-25 272.62-25.25 280.07-2.35 289.67-25 293.17-25 276.57 12.5 273.52 12.5 279.02 0 277.87 0ZM294.97-6.4L294.97-6.4Q294.07-8.8 294.07-12L294.07-12Q294.07-18.15 297.52-21.68 300.97-25.2 306.17-25.2L306.17-25.2Q314.32-25.2 316.87-18.6L316.87-18.6Q317.82-16.2 317.82-13L317.82-13Q317.82-6.85 314.37-3.33 310.92 0.2 305.72 0.2L305.72 0.2Q297.57 0.2 294.97-6.4ZM297.32-12.35Q297.32-7.75 299.69-5.23 302.07-2.7 305.82-2.7 309.57-2.7 312.07-5.38 314.57-8.05 314.57-12.65 314.57-17.25 312.22-19.78 309.87-22.3 306.09-22.3 302.32-22.3 299.82-19.63 297.32-16.95 297.32-12.35ZM328.01-3.2L328.01-3.2Q329.11-2.8 331.51-2.8 333.91-2.8 337.71-4.75L337.71-4.75 337.71-25 340.96-25.25 340.96 0 337.71 0 337.71-2.7Q334.01 0.15 330.16 0.15L330.16 0.15Q325.36 0.15 323.21-2.7L323.21-2.7Q322.11-4.1 322.11-6.6L322.11-6.6 322.11-25 325.36-25.25 325.36-7.45Q325.36-4.35 328.01-3.2ZM361.81-24.5L360.51-21.5Q359.71-21.95 358.81-21.95 357.91-21.95 357.81-21.9L357.81-21.9Q355.91-21.9 353.99-20.53 352.06-19.15 350.71-17.45L350.71-17.45 350.71 0 347.46 0 347.46-25 350.71-25.25 350.71-19.65Q352.56-22 353.86-22.95L353.86-22.95Q356.26-24.75 358.46-24.85L358.46-24.85Q358.76-24.9 359.56-24.9 360.36-24.9 361.81-24.5L361.81-24.5ZM383.66 0L380.51 0 380.51-35 383.66-35 383.66-18.85 400.66-18.85 400.66-35 403.81-35 403.81 0 400.66 0 400.66-15.85 383.66-15.85 383.66 0ZM411.9-12.3L411.9-11.5Q411.9-2.7 420.3-2.7L420.3-2.7Q423.85-2.7 426.8-3.65L426.8-3.65Q427.55-3.9 427.85-4.05L427.85-4.05 428.6-1.4Q426.85-0.35 422.25 0.1L422.25 0.1Q420.95 0.2 419.5 0.2L419.5 0.2Q415.3 0.2 412.5-1.9L412.5-1.9Q408.65-4.75 408.65-11.4 408.65-18.05 412.13-21.63 415.6-25.2 420.55-25.2 425.5-25.2 428-22L428-22Q429.9-19.45 429.9-15.25L429.9-15.25Q429.9-14.25 429.8-13.15L429.8-13.15 411.95-13.15Q411.9-12.75 411.9-12.3L411.9-12.3ZM420.75-22.1L420.75-22.1Q417.65-22.1 415.45-20.23 413.25-18.35 412.4-15.4L412.4-15.4 426.95-15.4Q426.7-20.95 422.65-21.85L422.65-21.85Q421.75-22.1 420.75-22.1ZM434.65-19.9L433.75-22.3Q439.2-25 443.3-25.15L443.3-25.15Q446.55-25.15 448.33-24.33 450.1-23.5 451.2-22.03 452.3-20.55 452.3-17.9L452.3-17.9 452.3 0 449.05 0 449.05-1.9Q442.2 0.2 440.25 0.2L440.25 0.2Q440.15 0.2 440.1 0.2L440.1 0.2Q435.6 0.2 433.95-2.55L433.95-2.55Q433.35-3.55 433.28-4.5 433.2-5.45 433.2-6.1L433.2-6.1Q433.2-7.9 434.6-9.33 436-10.75 437.95-11.25L437.95-11.25Q441.25-12.1 449.05-12.75L449.05-12.75 449.05-16.8Q449.05-22.25 443.35-22.25L443.35-22.25Q439.35-22.25 434.65-19.9L434.65-19.9ZM436.25-5.7L436.25-5.7Q436.25-2.1 441.2-2.1L441.2-2.1Q445.15-2.1 449.05-3.8L449.05-3.8 449.05-10.95Q441.25-9.85 439.4-9.25L439.4-9.25Q436.25-8.25 436.25-5.7ZM461.05 0L457.8 0 457.8-37.25 461.05-37.5 461.05 0ZM476.4-3.6L477-0.9Q476.1 0 473.75 0L473.75 0Q470.45 0 469.3-1.7L469.3-1.7Q467.35-3.55 467.35-6.7L467.35-6.7 467.35-22.1 464.55-22.1 465-25 467.35-25 467.35-29.95 470.6-30.25 470.6-25 476.4-25 476.4-22.1 470.6-22.1 470.6-5.9Q470.6-3 473.6-3L473.6-3Q474.9-3 476.4-3.6L476.4-3.6ZM485.29-37.5L485.29-22.15Q489.24-25 492.89-25.15L492.89-25.15Q495.99-25.15 497.64-24.4 499.29-23.65 500.34-22.28 501.39-20.9 501.39-18.4L501.39-18.4 501.39 0 498.14 0 498.14-17.55Q498.14-19.4 497.34-20.4L497.34-20.4Q495.74-22.25 492.44-22.25L492.44-22.25Q489.19-22.1 485.29-20.15L485.29-20.15 485.29 0 482.04 0 482.04-37.25 485.29-37.5Z" opacity="1" transform="matrix(1,0,0,1,0,0)" fill="#3c3c3c" class="undefined-text-1" data-fill-palette-color="secondary" id="text-1"></path></svg></g></svg></g></svg></g></svg></g><g><svg viewBox="0 0 245.65351679999998 194.95946619857756" height="194.95946619857756" width="245.65351679999998"><g><svg xmlns="http://www.w3.org/2000/svg" xmlns:xlink="http://www.w3.org/1999/xlink" version="1.1" x="0" y="0" viewBox="2.5 12.3 95.00577493300062 75.40000000000002" enable-background="new 0 0 100 100" xml:space="preserve" height="194.95946619857756" width="245.65351679999998" class="icon-icon-0" data-fill-palette-color="accent" id="icon-0"><path d="M84.1 32.5c4 0.6 7.4 2.5 9.9 5.7 2.4 3 3.6 6.5 3.5 10.3-0.1 2.7-0.4 5.4-1.1 8-1.6 5.8-4.6 10.9-9 14.9-2.7 2.4-5.9 3.2-9.5 2.7-1.5-0.2-2.9-0.7-4.4-1.1-0.3-0.1-0.6-0.1-0.9 0-1.1 0.3-2.2 0.6-3.3 0.8-3.8 0.9-7.2 0.2-10.3-2.3-1.2-0.9-2.1-2-3.1-3.2-2.9-3.4-4.9-7.3-6.2-11.6-0.7-2.3-1.1-4.7-1.2-7.1-0.1-1.5-0.1-2.9 0.1-4.4 0.6-3.7 2.3-6.8 5.1-9.2 3.5-3.1 7.7-4.2 12.3-3.9 1.7 0.1 3.4 0.4 5.1 0.8 0.3 0.1 0.4 0 0.4-0.3 0-0.6-0.1-1.3-0.2-1.9-0.6-2.5-2-4.5-4.3-5.8-0.5-0.3-0.5-0.3-0.2-0.8 0.3-0.6 0.6-1.2 0.9-1.8 0.1-0.3 0.3-0.3 0.5-0.2 0.4 0.3 0.8 0.5 1.2 0.8 1.6 1.1 2.8 2.5 3.7 4.2 0.2 0.3 0.2 0.3 0.4 0 0.3-0.5 0.7-0.9 1.1-1.3 2.5-2.6 5.6-3.9 9.2-4 2.1-0.1 4 0.6 6 1.3 0.2 0.1 0.2 0.2 0.1 0.4-1 1.5-2 2.9-3.4 4.1-2.3 1.9-5 3-8.1 3.1-1.4 0-2.7-0.2-4-0.6-0.2-0.1-0.3-0.1-0.3 0.2 0.2 0.8 0.3 1.6 0.2 2.3 0 0.2 0.1 0.2 0.3 0.2 2.2-0.6 4.5-0.9 7.2-0.9C82.4 32.3 83.2 32.4 84.1 32.5zM62.8 38.2c-2.3 0.3-4.2 1.3-5.8 3-1.7 1.8-2.6 3.9-2.7 6.4 0 0.6 0.1 1.2 0.6 1.6 0.5 0.4 1 0.4 1.6 0.1 0.5-0.3 0.8-0.7 0.8-1.3 0-0.8 0.1-1.5 0.4-2.2 1-2.8 3.5-4.6 6.6-4.7 0.8 0 1.3-0.5 1.4-1.2 0.1-0.8-0.3-1.5-1-1.7-0.3-0.1-0.5 0-0.8-0.1C63.5 38.1 63.2 38.2 62.8 38.2zM37 72.2v-0.4c0-2.5-2-4.5-4.5-4.5H7c-2.5 0-4.5 2-4.5 4.5v0.4c0 2.5 2 4.5 4.5 4.5h25.6C35 76.6 37 74.7 37 72.2zM31.2 83.2v-0.4c0-2.5-2-4.5-4.5-4.5h-14c-2.5 0-4.5 2-4.5 4.5v0.4c0 2.5 2 4.5 4.5 4.5h14C29.2 87.7 31.2 85.7 31.2 83.2zM2.5 27.8v0.4c0 2.5 2 4.5 4.5 4.5h25.6c2.5 0 4.5-2 4.5-4.5v-0.4c0-2.5-2-4.5-4.5-4.5H7C4.5 23.4 2.5 25.3 2.5 27.8zM8.3 16.8v0.4c0 2.5 2 4.5 4.5 4.5h14c2.5 0 4.5-2 4.5-4.5v-0.4c0-2.5-2-4.5-4.5-4.5h-14C10.3 12.3 8.3 14.3 8.3 16.8zM24.2 61.1V38.9c0-2.2-1.8-4-4-4h-0.9c-2.2 0-4 1.8-4 4v22.1c0 2.2 1.8 4 4 4h0.9C22.4 65.1 24.2 63.3 24.2 61.1z" fill="#398378" data-fill-palette-color="accent"></path></svg><g></g></g></svg></g></svg></g></svg><rect width="395.52" height="117.25881127309609" fill="none" stroke="none" visibility="hidden"></rect></g></svg></g></svg>